<?xml version="1.0" encoding="iso-8859-1"?>
<!-- Generator: Adobe Illustrator 19.0.0, SVG Export Plug-In . SVG Version: 6.00 Build 0)  -->
<svg version="1.1" id="Capa_1" xmlns="http://www.w3.org/2000/svg" xmlns:xlink="http://www.w3.org/1999/xlink" x="0px" y="0px"
	 viewBox="0 0 512 512" style="enable-background:new 0 0 512 512;" xml:space="preserve">
<g>
	<g>
		<path d="M430.324,0H81.676c-24.813,0-45,20.187-45,45v422c0,24.813,20.187,45,45,45h348.648c24.813,0,45-20.187,45-45V45
			C475.324,20.187,455.138,0,430.324,0z M151.76,452.385c0,4.143-3.357,7.5-7.5,7.5H95.473c-4.143,0-7.5-3.357-7.5-7.5v-53.771
			c0-4.142,3.357-7.5,7.5-7.5h48.787c4.143,0,7.5,3.357,7.5,7.5V452.385z M151.76,339.385c0,4.143-3.357,7.5-7.5,7.5H95.473
			c-4.143,0-7.5-3.357-7.5-7.5v-53.771c0-4.142,3.357-7.5,7.5-7.5h48.787c4.143,0,7.5,3.357,7.5,7.5V339.385z M151.76,226.385
			c0,4.143-3.357,7.5-7.5,7.5H95.473c-4.143,0-7.5-3.357-7.5-7.5v-53.771c0-4.142,3.357-7.5,7.5-7.5h48.787
			c4.143,0,7.5,3.357,7.5,7.5V226.385z M151.76,113.385c0,4.143-3.357,7.5-7.5,7.5H95.473c-4.143,0.001-7.5-3.357-7.5-7.499V59.614
			c0-4.143,3.357-7.5,7.5-7.5h48.787c4.143,0,7.5,3.357,7.5,7.5V113.385z M424.027,452.385c0,4.143-3.357,7.5-7.5,7.5H367.74
			c-4.143,0-7.5-3.357-7.5-7.5v-53.771c0-4.142,3.358-7.5,7.5-7.5h48.787c4.143,0,7.5,3.357,7.5,7.5V452.385z M424.027,339.385
			c0,4.143-3.357,7.5-7.5,7.5H367.74c-4.143,0-7.5-3.357-7.5-7.5v-53.771c0-4.142,3.358-7.5,7.5-7.5h48.787
			c4.143,0,7.5,3.357,7.5,7.5V339.385z M424.027,226.386c0,4.143-3.357,7.5-7.5,7.5H367.74c-4.142,0-7.5-3.358-7.5-7.5v-53.771
			c0-4.143,3.357-7.5,7.5-7.5h48.787c4.143,0,7.5,3.357,7.5,7.5V226.386z M416.527,120.886H367.74c-4.143,0-7.5-3.357-7.5-7.5
			V59.614c0-4.143,3.357-7.5,7.5-7.5h48.787c4.143,0,7.5,3.357,7.5,7.5v53.772h0C424.027,117.529,420.67,120.886,416.527,120.886z"
			/>
	</g>
</g>
<g>
</g>
<g>
</g>
<g>
</g>
<g>
</g>
<g>
</g>
<g>
</g>
<g>
</g>
<g>
</g>
<g>
</g>
<g>
</g>
<g>
</g>
<g>
</g>
<g>
</g>
<g>
</g>
<g>
</g>
</svg>
